<?xml version="1.0" standalone="no"?>
<svg version="1.0" xmlns="http://www.w3.org/2000/svg"
 width="217" height="223" viewBox="0 0 868.000000 892.000000"
 preserveAspectRatio="xMidYMid meet">
<metadata>
Created by potrace 1.16, written by Peter Selinger 2001-2019
</metadata>
<g transform="translate(0.000000,892.000000) scale(0.100000,-0.100000)"
fill="#060E21" stroke="none">
<path d="M1075 8489 c-148 -5 -324 -6 -391 -3 -82 4 -128 3 -143 -5 -34 -19
-27 -59 20 -111 102 -111 197 -205 234 -228 87 -55 333 -292 367 -354 12 -23
40 -54 60 -68 20 -14 50 -42 65 -63 15 -21 73 -85 128 -141 55 -57 141 -147
190 -201 50 -54 111 -119 136 -144 25 -25 50 -54 55 -63 5 -10 50 -60 99 -111
50 -51 111 -117 136 -147 69 -82 285 -300 297 -300 5 0 15 -13 20 -30 10 -26
117 -141 405 -433 43 -44 82 -87 85 -97 14 -36 280 -320 300 -320 5 0 15 -12
21 -27 7 -16 30 -41 52 -58 59 -44 206 -196 287 -297 38 -48 101 -118 139
-155 38 -37 74 -77 80 -88 7 -11 82 -92 168 -180 86 -88 171 -177 190 -197 18
-20 80 -88 137 -151 57 -63 128 -136 158 -163 55 -48 119 -123 151 -174 9 -14
66 -76 128 -138 61 -61 111 -115 111 -118 0 -4 36 -41 80 -81 44 -41 80 -81
80 -88 0 -15 241 -274 404 -435 59 -57 123 -128 142 -157 20 -30 91 -111 159
-181 68 -70 134 -140 146 -156 12 -15 39 -40 59 -55 20 -15 76 -71 123 -126
47 -55 110 -127 140 -160 77 -84 133 -156 141 -181 3 -11 33 -47 66 -78 33
-32 60 -64 60 -72 0 -8 18 -34 40 -56 22 -23 40 -45 40 -49 0 -4 18 -29 40
-54 22 -25 40 -52 40 -58 0 -7 15 -26 33 -42 18 -17 44 -51 59 -76 15 -25 48
-68 73 -95 26 -27 54 -62 62 -79 9 -16 38 -55 66 -85 28 -30 55 -66 61 -80 17
-38 61 -103 84 -124 12 -10 31 -38 42 -61 11 -23 38 -56 60 -74 22 -17 47 -46
56 -64 9 -17 38 -53 63 -80 25 -26 51 -60 56 -76 6 -16 39 -64 75 -106 36 -43
71 -89 79 -104 13 -24 49 -67 137 -163 19 -20 34 -40 34 -45 0 -4 18 -27 40
-51 22 -24 40 -51 40 -61 0 -30 54 -73 86 -69 l29 3 5 225 c3 124 4 421 3 660
-2 239 -3 512 -3 605 l-1 170 -37 44 c-42 49 -185 201 -220 234 -75 69 -157
157 -177 188 -12 19 -90 103 -171 186 -227 230 -304 313 -316 338 -5 12 -21
28 -34 34 -14 6 -29 22 -34 37 -6 14 -83 98 -171 187 -89 89 -191 198 -226
242 -36 44 -74 85 -84 91 -11 5 -35 32 -55 60 -19 27 -94 108 -167 179 -173
170 -327 332 -335 355 -7 17 -206 230 -402 429 -47 48 -98 104 -113 126 -28
39 -188 210 -401 429 -60 61 -117 124 -126 140 -10 15 -120 133 -244 261 -124
127 -240 252 -258 276 -17 24 -55 69 -83 99 -29 30 -87 93 -130 140 -43 47
-91 93 -107 102 -15 10 -28 21 -28 26 0 6 -46 59 -135 152 -8 8 -38 42 -66 75
-58 68 -223 246 -380 409 -58 61 -128 140 -156 176 -28 36 -62 75 -75 87 -12
12 -43 45 -68 73 -25 29 -54 59 -64 68 -11 10 -29 27 -40 40 -12 13 -56 59
-98 102 -43 42 -78 83 -78 88 0 6 -87 98 -193 204 -107 106 -230 238 -275 293
-44 55 -133 154 -197 220 -65 66 -124 135 -131 153 -10 23 -21 32 -38 32 -12
0 -31 9 -40 19 -10 11 -30 22 -45 25 -50 10 -417 13 -686 5z"/>
<path d="M6908 8495 c-4 -4 -110 -7 -235 -7 -125 1 -246 -2 -268 -6 -38 -7
-40 -9 -40 -42 0 -31 3 -35 33 -41 18 -4 41 -13 50 -22 9 -8 33 -17 53 -21 21
-4 42 -13 48 -20 7 -8 24 -17 39 -21 25 -6 104 -67 144 -111 88 -97 99 -114
107 -163 4 -27 12 -56 18 -63 21 -26 24 -140 29 -913 14 -2301 12 -2731 -17
-2790 -28 -56 -55 -66 -182 -70 -132 -4 -137 -5 -137 -45 0 -27 83 -129 171
-210 15 -14 67 -70 116 -125 50 -55 167 -179 262 -275 177 -181 275 -287 303
-330 34 -53 290 -301 306 -298 16 3 17 173 17 2471 0 2340 1 2469 18 2478 9 6
17 19 17 30 0 11 16 70 36 132 36 112 36 112 117 195 45 45 87 82 93 82 6 0
22 8 35 19 13 10 49 22 79 26 87 12 150 50 150 91 0 13 -6 26 -12 31 -7 4
-161 8 -343 8 -181 0 -481 4 -665 9 -184 5 -338 5 -342 1z"/>
<path d="M1097 6998 c-16 -12 -17 -192 -19 -2583 -3 -2429 -4 -2572 -21 -2598
-9 -14 -17 -35 -17 -45 0 -11 -9 -31 -20 -45 -11 -14 -23 -34 -27 -45 -16 -42
-121 -139 -175 -162 -13 -6 -30 -14 -38 -19 -8 -5 -37 -20 -65 -32 -27 -12
-61 -32 -75 -45 -17 -15 -40 -24 -70 -26 -43 -3 -45 -5 -48 -36 -4 -36 23 -53
82 -52 85 3 788 5 1056 3 614 -4 716 -4 765 4 49 8 50 9 50 43 0 34 -1 35 -44
38 -35 3 -55 12 -92 43 -26 21 -55 39 -65 39 -42 0 -224 130 -224 160 0 9 -9
28 -19 41 -25 32 -51 95 -50 122 0 12 -11 72 -26 132 -25 102 -26 120 -20 255
7 172 8 474 6 2127 -2 857 1 1248 8 1262 6 11 11 31 11 45 0 14 13 40 29 58
l29 33 147 3 c178 4 184 9 102 86 -31 29 -59 64 -62 78 -4 13 -50 70 -103 125
-53 56 -124 132 -157 169 -33 38 -96 105 -140 151 -44 45 -93 98 -110 119 -16
20 -124 130 -238 245 -114 115 -212 220 -217 233 -9 24 -91 86 -114 86 -7 0
-20 -6 -29 -12z"/>
</g>
</svg>
